<?xml version="1.0" ?>
<!-- Uploaded to: SVG Repo, www.svgrepo.com, Generator: SVG Repo Mixer Tools -->
<svg width="800px" height="800px" viewBox="0 0 512 512" id="Layer_1" version="1.1" xml:space="preserve" xmlns="http://www.w3.org/2000/svg" xmlns:xlink="http://www.w3.org/1999/xlink">
<style type="text/css">
	.st0{fill:#69C9C9;}
	.st1{fill:#4D5152;}
</style>
<path class="st0" d="M272.4,70.3c-95.9,0-173.6,77.7-173.6,173.6c0,95.9,77.7,173.6,173.6,173.6S446,339.8,446,243.9  C446,148,368.3,70.3,272.4,70.3z M175.6,258.4c-8,0-14.5-6.5-14.5-14.5c0-8,6.5-14.5,14.5-14.5c8,0,14.5,6.5,14.5,14.5  C190,251.9,183.5,258.4,175.6,258.4z M272.4,258.4c-8,0-14.5-6.5-14.5-14.5c0-8,6.5-14.5,14.5-14.5s14.5,6.5,14.5,14.5  C286.9,251.9,280.4,258.4,272.4,258.4z M369.2,258.4c-8,0-14.5-6.5-14.5-14.5c0-8,6.5-14.5,14.5-14.5c8,0,14.5,6.5,14.5,14.5  C383.7,251.9,377.2,258.4,369.2,258.4z"/>
<g>
<path class="st1" d="M436.2,80.1c-43.8-43.8-102-67.9-163.9-67.9S152.2,36.4,108.4,80.1S40.5,182.1,40.5,244   c0,27.7,4.8,54.8,14.4,80.5L7.9,499.7l167.8-45c1.5,0.7,2.9,1.3,4.4,2c29.1,12.6,60.1,19,92.2,19c61.9,0,120.1-24.1,163.9-67.9   c43.8-43.8,67.9-102,67.9-163.9C504.1,182.1,480,123.9,436.2,80.1z M272.3,455.8c-58,0-112.1-23-152.4-64.7L105.5,405   c13.4,13.9,28.3,26,44.5,36L36.2,471.5l39.7-148l-1.2-3c-9.4-24.3-14.2-50-14.2-76.4c0-116.8,95-211.8,211.8-211.8   s211.8,95,211.8,211.8C484.1,360.8,389.1,455.8,272.3,455.8z"/>
<path class="st1" d="M78.6,371.3c4,6.1,8.4,12.2,13.1,17.9l15.6-12.5c-4.2-5.2-8.2-10.8-11.9-16.4L78.6,371.3z"/>
<path class="st1" d="M272.4,61.2c-37.7,0-74,11.4-104.8,33.1l11.5,16.4c27.5-19.3,59.7-29.5,93.3-29.5c89.7,0,162.8,73,162.8,162.8   s-73,162.8-162.8,162.8s-162.8-73-162.8-162.8c0-33.6,10.2-65.8,29.5-93.3l-16.4-11.5c-21.7,30.8-33.1,67.1-33.1,104.8   c0,100.8,82,182.8,182.8,182.8c100.8,0,182.8-82,182.8-182.8S373.2,61.2,272.4,61.2z"/>
<path class="st1" d="M164.2,122.4l-13.3-14.9c-5.3,4.7-10.3,9.8-15,15l14.9,13.3C155,131.1,159.5,126.6,164.2,122.4z"/>
<path class="st1" d="M272.4,209.5c-19,0-34.5,15.5-34.5,34.5c0,19,15.5,34.5,34.5,34.5s34.5-15.5,34.5-34.5   C306.9,224.9,291.4,209.5,272.4,209.5z M272.4,258.4c-8,0-14.5-6.5-14.5-14.5c0-8,6.5-14.5,14.5-14.5s14.5,6.5,14.5,14.5   C286.9,251.9,280.4,258.4,272.4,258.4z"/>
<path class="st1" d="M175.6,209.5c-19,0-34.5,15.5-34.5,34.5c0,19,15.5,34.5,34.5,34.5s34.5-15.5,34.5-34.5   C210,224.9,194.6,209.5,175.6,209.5z M175.6,258.4c-8,0-14.5-6.5-14.5-14.5c0-8,6.5-14.5,14.5-14.5c8,0,14.5,6.5,14.5,14.5   C190,251.9,183.5,258.4,175.6,258.4z"/>
<path class="st1" d="M369.2,209.5c-19,0-34.5,15.5-34.5,34.5c0,19,15.5,34.5,34.5,34.5s34.5-15.5,34.5-34.5   C403.7,224.9,388.2,209.5,369.2,209.5z M369.2,258.4c-8,0-14.5-6.5-14.5-14.5c0-8,6.5-14.5,14.5-14.5c8,0,14.5,6.5,14.5,14.5   C383.7,251.9,377.2,258.4,369.2,258.4z"/>
</g>
</svg>